# xmcd
#
# Track frame offsets: 
#        150
#        12975
#        24977
#        38387
#        50997
#        63760
#        75627
#        86072
#        96610
#        108692
#        123565
#        134205
#        145477
#        157337
#        170457
#        182652
#        195222
#        207565
#
# Disc length: 2930 seconds
#
# Revision: 2
# Processed by: cddbd v1.5.2PL0 Copyright (c) Steve Scherf et al.
# Submitted via: ExactAudioCopy v0.99pb5
#
DISCID=0a0b7012
DTITLE=Various Artist - The History Of Country Music - The Forties - Volume 2
DTITLE=Various Artist - CD 1
DYEAR=1993
DGENRE=Country
TTITLE0=Bob Wills and His Texas Playboys - Roly Poly
TTITLE1=Gene Autry - (I've got spurs that) jingle, jangle, jingle
TTITLE2=Pee Wee King And His Golden West Cowboys - Tennessee waltz
TTITLE3=Tex Ritter - Singing in the saddle
TTITLE4=Eddy Arnold - What is life without love
TTITLE5=Texas Jim Robertson - Filipino baby
TTITLE6=Jimmie Davis - Is it too late now
TTITLE7=Roy Rogers - You waited too long
TTITLE8=Red Foley - Tennessee border
TTITLE9=Owen Bradley Quintet - Blues stay away from me
TTITLE10=Ernest Tubb - Try me one more time
TTITLE11=Zeke Manners And His Band - Sioux City Sue
TTITLE12=Spade Cooley - Crazy cause I love you
TTITLE13=Sons Of The Pioneers - Private Buckaroo
TTITLE14=Bill Monroe And His Blue Grass Boys - Kentucky waltz
TTITLE15=Little Jimmy Dickens - Take an old cold 'tater (and wait)
TTITLE16=Hank Williams - Move it on over
TTITLE17=Floyd Tillman - Slippin' around
EXTD=
EXTT0=
EXTT1=
EXTT2=
EXTT3=
EXTT4=
EXTT5=
EXTT6=
EXTT7=
EXTT8=
EXTT9=
EXTT10=
EXTT11=
EXTT12=
EXTT13=
EXTT14=
EXTT15=
EXTT16=
EXTT17=
PLAYORDER=
